<?xml version="1.0" encoding="UTF-8"?>
<svg version="1.1" xmlns="http://www.w3.org/2000/svg" width="256" height="256">
<path d="M0 0 C0.69606063 -0.00453111 1.39212125 -0.00906223 2.10927463 -0.01373065 C4.4413865 -0.02638955 6.77326528 -0.02475333 9.10540771 -0.02310181 C10.77772828 -0.02908624 12.45004607 -0.03589158 14.12236023 -0.04345703 C18.6659188 -0.06113548 23.20940204 -0.06581326 27.75299168 -0.0670886 C30.5927083 -0.06851001 33.43240575 -0.07277945 36.27211761 -0.07808304 C46.18221757 -0.09659118 56.09226371 -0.10475289 66.00238037 -0.10317993 C75.23414349 -0.10197912 84.46567258 -0.12306751 93.69737649 -0.15466726 C101.6270394 -0.18084101 109.55662594 -0.19154673 117.4863317 -0.19026911 C122.22060859 -0.18975969 126.95467764 -0.19543142 131.68891144 -0.21662521 C136.14429097 -0.23602548 140.59926484 -0.23611991 145.05465889 -0.22159195 C146.68644111 -0.21950479 148.31824882 -0.22419925 149.94998741 -0.23631287 C167.28448311 -0.35662454 167.28448311 -0.35662454 173.58229446 5.71474648 C177.52979494 10.17656853 179.33626233 13.66100263 179.30804443 19.58676147 C179.30781784 21.17795807 179.30781784 21.17795807 179.30758667 22.80130005 C179.2972641 23.93996521 179.28694153 25.07863037 179.27630615 26.25180054 C179.27347626 27.42253113 179.27064636 28.59326172 179.26773071 29.79946899 C179.25653521 33.53889178 179.23143141 37.27807513 179.20599365 41.01742554 C179.19596305 43.55257833 179.18683734 46.08773487 179.1786499 48.62289429 C179.15659791 54.83781974 179.12312641 61.05260553 179.08099365 67.26742554 C180.18257812 66.78136841 181.2841626 66.29531128 182.41912842 65.79452515 C187.79689527 63.55184686 192.71410909 63.22920504 198.32318115 64.95883179 C203.91045953 67.47837807 207.5587735 71.01858819 210.1864624 76.62680054 C211.1275527 79.40486623 211.44647706 81.65266273 211.51849365 84.57992554 C211.55845459 85.46293335 211.59841553 86.34594116 211.6395874 87.25570679 C210.26378354 94.67350242 205.74714886 98.73740372 199.97113037 103.06185913 C189.87984656 110.86105851 180.34241428 118.97939417 178.23511124 132.14496231 C176.90682217 144.28007558 177.47794149 156.53186194 178.06530762 168.69766235 C178.34736761 175.10281031 178.45575599 181.51291326 178.57902336 187.92275047 C178.67625624 192.9016086 178.80138391 197.87347874 179.01974487 202.84863281 C179.05252029 203.75955185 179.08529572 204.67047089 179.11906433 205.60899353 C179.18014119 207.29302565 179.25683935 208.97660604 179.35331726 210.65898132 C179.54935564 216.92207162 177.9895528 222.11738896 173.667696 226.79805946 C168.43173584 231.41624367 163.9331894 232.5163059 157.07969666 232.53485107 C156.38686516 232.53938219 155.69403366 232.5439133 154.98020726 232.54858172 C152.6650202 232.56121409 150.35006873 232.55960612 148.03485107 232.55795288 C146.37223509 232.56393889 144.70962189 232.57074461 143.04701233 232.57830811 C138.5345036 232.59596865 134.02207073 232.60066353 129.50953078 232.60193968 C126.68873733 232.60336189 123.86796312 232.60763283 121.04717445 232.61293411 C111.20190838 232.6314351 101.35669645 232.6396047 91.51141357 232.63803101 C82.34154505 232.63682983 73.17191198 232.65792733 64.00210303 232.68951833 C56.12337489 232.71569185 48.24472359 232.72639784 40.36595231 232.72512019 C35.66298889 232.72461084 30.96023471 232.73027897 26.25731468 232.75147629 C21.83228971 232.77087662 17.40767318 232.77097096 12.98263359 232.75644302 C11.36213838 232.75435599 9.7416175 232.75904954 8.12116623 232.77116394 C-9.00153217 232.89084165 -9.00153217 232.89084165 -15.42072773 226.85550499 C-20.40809635 221.31502181 -21.2158254 216.2379068 -21.19316101 209.01332092 C-21.19839769 208.1857322 -21.20363437 207.35814347 -21.20902973 206.5054763 C-21.22402323 203.7342639 -21.22473474 200.96323625 -21.22540283 198.19198608 C-21.23302474 196.20425098 -21.24145229 194.21651883 -21.25062561 192.22879028 C-21.2725741 186.82995537 -21.28136998 181.4311771 -21.28645205 176.03230262 C-21.29009515 172.65872828 -21.29633496 169.28516879 -21.30345345 165.91160011 C-21.32794897 154.1406349 -21.34100011 142.36971376 -21.34454346 130.59872437 C-21.348179 119.62929048 -21.3780756 108.66013635 -21.41994804 97.69078797 C-21.45464521 88.2706728 -21.4700918 78.85065036 -21.47078949 69.43047172 C-21.47158248 63.80526814 -21.48033168 58.18034953 -21.50878716 52.55521202 C-21.53495779 47.26341695 -21.53717837 41.97214334 -21.52113152 36.68031311 C-21.51931626 34.74052608 -21.52601467 32.80070913 -21.54195023 30.86098671 C-21.56241655 28.20753622 -21.55185646 25.55590929 -21.53373718 22.90248108 C-21.54693715 22.13933191 -21.56013712 21.37618273 -21.57373708 20.58990782 C-21.48285112 14.7415161 -19.52050825 10.83842326 -15.91900635 6.26742554 C-10.73239709 1.46032427 -7.06461957 0.01898928 0 0 Z " fill="#040303" transform="translate(32.91900634765625,11.732574462890625)"/>
<path d="M0 0 C1.9453125 -0.29296875 1.9453125 -0.29296875 4.125 -0.1875 C5.40375 -0.125625 6.6825 -0.06375 8 0 C8.17015625 0.66386719 8.3403125 1.32773437 8.515625 2.01171875 C10.72740544 10.20978844 10.72740544 10.20978844 16.63648987 16.06260681 C22.05656558 19.00717406 26.54049276 19.60210441 32.65234375 19.56640625 C33.55191299 19.57260483 34.45148224 19.57880341 35.37831116 19.58518982 C37.27001877 19.59225474 39.161789 19.58917253 41.0534668 19.57641602 C43.92679754 19.56255164 46.79686538 19.59666795 49.66992188 19.63476562 C51.51822995 19.63571706 53.36654206 19.63385672 55.21484375 19.62890625 C56.06199448 19.64216446 56.9091452 19.65542267 57.78196716 19.66908264 C64.18389914 19.57055728 68.78764244 17.71949212 74 14 C75.98746695 11.8561515 75.98746695 11.8561515 77 9.5 C77.556875 8.40171875 77.556875 8.40171875 78.125 7.28125 C79.05026125 4.86896174 79.57005386 2.54384798 80 0 C81.27875 -0.061875 82.5575 -0.12375 83.875 -0.1875 C84.95394531 -0.23970703 84.95394531 -0.23970703 86.0546875 -0.29296875 C86.69664062 -0.19628906 87.33859375 -0.09960938 88 0 C88.99 1.485 88.99 1.485 90 3 C92.87467753 3.47844772 92.87467753 3.47844772 96.25 3.44140625 C98.12171875 3.48104492 98.12171875 3.48104492 100.03125 3.52148438 C101.3409375 3.53501953 102.650625 3.54855469 104 3.5625 C106.58346261 3.59682751 109.16683342 3.63936932 111.75 3.69140625 C112.89984375 3.70373291 114.0496875 3.71605957 115.234375 3.72875977 C118 4 118 4 120 6 C124.93885579 26.04414215 128.15380413 57.44218144 117.87817383 76.17669678 C112.31891636 85.28461107 105.03787918 92.99415978 97.38617706 100.36545563 C95.63876423 102.04923699 93.91577994 103.75555346 92.1930542 105.46453857 C80.66398404 116.74354895 70.20275475 125.69405771 53.2734375 125.87109375 C49.48369351 125.75470518 45.75889011 125.49453812 42 125 C41.61781233 126.65614657 41.28604898 128.32457024 41 130 C43.11925604 132.11925604 47.6196093 131.41831017 50.5625 131.5625 C51.77196289 131.62727539 51.77196289 131.62727539 53.00585938 131.69335938 C55.00368805 131.79975262 57.0018207 131.90040888 59 132 C54.68227736 137.22671688 50.05770527 141.96720781 45.171875 146.66796875 C41.81572892 150.27160042 40.7476724 152.93130989 40.734375 157.84375 C40.73179688 158.76027344 40.72921875 159.67679688 40.7265625 160.62109375 C40.73816406 162.04615234 40.73816406 162.04615234 40.75 163.5 C40.74226563 164.45003906 40.73453125 165.40007812 40.7265625 166.37890625 C40.73042969 167.75369141 40.73042969 167.75369141 40.734375 169.15625 C40.73775879 170.40631836 40.73775879 170.40631836 40.74121094 171.68164062 C41.02542545 174.22777364 41.63885299 175.83895426 43 178 C46.71815135 179.85907568 51.15793546 179.22797004 55.25 179.25 C56.66345703 179.2809375 56.66345703 179.2809375 58.10546875 179.3125 C59.02457031 179.31765625 59.94367188 179.3228125 60.890625 179.328125 C62.14407715 179.34214355 62.14407715 179.34214355 63.42285156 179.35644531 C69.15028244 178.56428454 73.02378273 175.34769367 76.97973633 171.3449707 C77.43742401 170.88611481 77.89511169 170.42725891 78.3666687 169.95449829 C79.86223705 168.45180123 81.34700112 166.93888689 82.83203125 165.42578125 C83.87407929 164.37559 84.91687171 163.32613688 85.96037292 162.27738953 C88.69383031 159.52687881 91.41857377 156.76790481 94.14111328 154.0065918 C98.514024 149.57427694 102.89991682 145.15481361 107.28619957 140.73573875 C108.81844569 139.18949096 110.3468436 137.63951761 111.87471008 136.08894348 C112.79624374 135.15765121 113.7177774 134.22635895 114.66723633 133.2668457 C115.88918449 132.0279937 115.88918449 132.0279937 117.13581848 130.76411438 C119 129 119 129 120 129 C120.04629419 136.3973076 120.08185426 143.79458407 120.10362434 151.19200706 C120.1140717 154.62675459 120.12824805 158.06140317 120.15087891 161.49609375 C120.17672063 165.44269638 120.18646493 169.38925863 120.1953125 173.3359375 C120.20563507 174.57242035 120.21595764 175.8089032 120.22659302 177.08285522 C120.22674408 178.22388702 120.22689514 179.36491882 120.22705078 180.54052734 C120.231492 181.548685 120.23593323 182.55684265 120.24050903 183.59555054 C120 186 120 186 118 188 C115.234375 188.27124023 115.234375 188.27124023 111.75 188.30859375 C110.5021875 188.33373047 109.254375 188.35886719 107.96875 188.38476562 C105.32296568 188.41992122 102.67712658 188.45117143 100.03125 188.47851562 C98.15953125 188.5181543 98.15953125 188.5181543 96.25 188.55859375 C94.52523437 188.57877563 94.52523437 188.57877563 92.765625 188.59936523 C91.85296875 188.73157471 90.9403125 188.86378418 90 189 C89.34 189.99 88.68 190.98 88 192 C86.125 192.3984375 86.125 192.3984375 84 192.375 C83.29875 192.38273438 82.5975 192.39046875 81.875 192.3984375 C80 192 80 192 78 189 C76.00769835 188.54443835 76.00769835 188.54443835 73.67285156 188.61473083 C72.76426392 188.60508301 71.85567627 188.59543518 70.91955566 188.585495 C69.92000854 188.59007217 68.92046143 188.59464935 67.890625 188.59936523 C66.84015991 188.59238617 65.78969482 188.5854071 64.70739746 188.57821655 C61.2215179 188.55815702 57.73593229 188.55873972 54.25 188.55859375 C51.83625481 188.5468318 49.42251692 188.53347051 47.00878906 188.51856995 C40.64404869 188.48229463 34.27937304 188.46215496 27.91455078 188.44702148 C17.72545306 188.42223822 7.53649841 188.38271845 -2.65246582 188.32512093 C-6.22114348 188.30872632 -9.78968766 188.30500804 -13.35839844 188.30210876 C-15.53580968 188.2923368 -17.71321879 188.28207424 -19.890625 188.27124023 C-20.89017212 188.27379318 -21.88971924 188.27634613 -22.91955566 188.27897644 C-23.82814331 188.27214844 -24.73673096 188.26532043 -25.67285156 188.25828552 C-26.46483948 188.25665122 -27.25682739 188.25501692 -28.07281494 188.25333309 C-30 188 -30 188 -32 186 C-32.19725559 183.60828534 -32.26936802 181.33228683 -32.25396729 178.93945312 C-32.25708727 178.20411598 -32.26020725 177.46877884 -32.26342177 176.71115875 C-32.27143197 174.2344422 -32.26506649 171.7579686 -32.25878906 169.28125 C-32.26149759 167.5108221 -32.26505774 165.74039533 -32.26940918 163.9699707 C-32.27855195 159.15189875 -32.27498118 154.33391213 -32.26865101 149.51583862 C-32.26360076 144.48256188 -32.26827974 139.44929264 -32.27142334 134.41601562 C-32.27506584 125.96222618 -32.27025646 117.50847165 -32.26074219 109.0546875 C-32.2498571 99.26964776 -32.25338248 89.48469135 -32.264395 79.69965363 C-32.2734598 71.31068456 -32.27475711 62.92174063 -32.26951766 54.53276825 C-32.26639351 49.51703016 -32.26600077 44.5013313 -32.27259064 39.4855957 C-32.27835177 34.77098677 -32.27438991 30.05648567 -32.26280212 25.34188843 C-32.26014891 23.60761698 -32.26093182 21.87333651 -32.26532745 20.1390686 C-32.27075843 17.77943723 -32.26397893 15.4201557 -32.25396729 13.06054688 C-32.25842873 12.3673661 -32.26289017 11.67418533 -32.26748681 10.95999908 C-32.22830021 6.22830021 -32.22830021 6.22830021 -30 4 C-27.234375 3.72875977 -27.234375 3.72875977 -23.75 3.69140625 C-21.87828125 3.65370117 -21.87828125 3.65370117 -19.96875 3.61523438 C-17.32296568 3.58007878 -14.67712658 3.54882857 -12.03125 3.52148438 C-10.15953125 3.4818457 -10.15953125 3.4818457 -8.25 3.44140625 C-7.10015625 3.42795166 -5.9503125 3.41449707 -4.765625 3.40063477 C-3.85296875 3.26842529 -2.9403125 3.13621582 -2 3 C-1.34 2.01 -0.68 1.02 0 0 Z " fill="#DFDFDF" transform="translate(68,32)"/>
<path d="M0 0 C0.96084503 0.00007553 1.92169006 0.00015106 2.91165161 0.00022888 C3.95127045 0.00539017 4.99088928 0.01055145 6.06201172 0.01586914 C7.12459198 0.01728409 8.18717224 0.01869904 9.2819519 0.02015686 C12.68522931 0.02576705 16.0884416 0.0383213 19.49169922 0.05102539 C21.79508369 0.05603908 24.09846918 0.06060221 26.40185547 0.06469727 C32.05682858 0.0757398 37.71175285 0.0930113 43.36669922 0.11352539 C43.36669922 4.07352539 43.36669922 8.03352539 43.36669922 12.11352539 C40.72669922 12.11352539 38.08669922 12.11352539 35.36669922 12.11352539 C34.70669922 13.43352539 34.04669922 14.75352539 33.36669922 16.11352539 C32.52373291 16.13858154 31.6807666 16.1636377 30.81225586 16.18945312 C27.69428248 16.28440694 24.57648418 16.38364987 21.45874023 16.48583984 C20.10755775 16.52923762 18.75631869 16.57090909 17.4050293 16.61083984 C15.46633221 16.66842491 13.52783646 16.73266837 11.58935547 16.79711914 C10.42154541 16.83377686 9.25373535 16.87043457 8.05053711 16.90820312 C5.44890127 16.81428727 5.44890127 16.81428727 4.36669922 18.11352539 C4.26687357 20.43889395 4.23226912 22.7346136 4.23971558 25.06054688 C4.23737559 26.1633293 4.23737559 26.1633293 4.23498833 27.28839016 C4.23097566 29.77048643 4.23416899 32.25252234 4.23730469 34.73461914 C4.23595076 36.50652096 4.23417088 38.27842249 4.23199463 40.05032349 C4.22741923 44.87663075 4.22921029 49.70291674 4.23237371 54.5292244 C4.23489677 59.56831166 4.23255993 64.60739704 4.23098755 69.64648438 C4.22916569 78.11043629 4.23157258 86.57437949 4.23632812 95.03833008 C4.24177078 104.83868451 4.24000813 114.63901814 4.23450172 124.43937206 C4.22997105 132.83764163 4.22931982 141.23590491 4.23194039 149.6341753 C4.23350342 154.65715183 4.23369623 159.68011857 4.2304039 164.70309448 C4.22752585 169.42422337 4.22949965 174.14532531 4.23529816 178.86645126 C4.23662611 180.60436839 4.23623104 182.34228776 4.23403549 184.08020401 C4.23132536 186.44233512 4.2347034 188.80437847 4.23971558 191.16650391 C4.23636949 192.2116675 4.23636949 192.2116675 4.23295581 193.27794552 C3.97848528 196.47351367 3.97848528 196.47351367 5.36669922 199.11352539 C6.77035712 199.22107688 8.1793254 199.26032537 9.58705139 199.27174377 C10.49715469 199.28153259 11.407258 199.29132141 12.34494019 199.30140686 C13.35122467 199.30716232 14.35750916 199.31291779 15.39428711 199.31884766 C16.44781876 199.32874725 17.5013504 199.33864685 18.58680725 199.34884644 C22.08763338 199.38056834 25.58847311 199.40526096 29.08935547 199.42993164 C31.50931665 199.45049195 33.92927415 199.47148816 36.34922791 199.49290466 C42.73280883 199.54822074 49.11642267 199.59758782 55.50006104 199.64575195 C62.00837143 199.69589754 68.51663376 199.75161975 75.02490234 199.80688477 C87.80546 199.9145829 100.58605865 200.01619101 113.36669922 200.11352539 C114.02669922 201.43352539 114.68669922 202.75352539 115.36669922 204.11352539 C117.38492839 204.01586914 119.40315755 203.91821289 121.42138672 203.82055664 C122.06333984 203.91723633 122.70529297 204.01391602 123.36669922 204.11352539 C124.02669922 205.10352539 124.68669922 206.09352539 125.36669922 207.11352539 C129.55542179 207.72305186 133.77743776 207.62831873 138.00537109 207.61450195 C140.0959887 207.61353497 142.1828674 207.65501408 144.27294922 207.69946289 C152.26359605 207.99826166 152.26359605 207.99826166 159.25732422 204.70727539 C162.46727724 200.76022205 162.48471574 198.80403383 162.4609375 193.75537109 C162.45815047 192.40318321 162.45548064 191.05099508 162.45291138 189.69880676 C162.44986118 188.98069132 162.44681099 188.26257587 162.44366837 187.52269936 C162.43232735 183.717638 162.45283054 179.91269625 162.46826172 176.10766602 C162.48653293 171.26638019 162.49530256 166.42573027 162.46630859 161.58447266 C162.44371252 157.67187616 162.4552743 153.76066312 162.48931503 149.84816551 C162.49606684 148.36072375 162.49045183 146.87317013 162.47195816 145.38582802 C162.33666652 133.75114735 162.33666652 133.75114735 164.94769287 129.59994507 C166.66912936 127.83910882 168.27418279 126.40528284 170.36669922 125.11352539 C170.69669922 125.11352539 171.02669922 125.11352539 171.36669922 125.11352539 C171.50589259 135.81431799 171.61241834 146.51489424 171.67757225 157.21640873 C171.70884768 162.18593957 171.75125106 167.15484977 171.81933594 172.12402344 C171.88466396 176.92217012 171.92043376 181.71972093 171.93596268 186.51827812 C171.94702496 188.34633194 171.96862777 190.17435417 172.00107956 192.0021534 C172.04482377 194.56871393 172.05062615 197.132832 172.04785156 199.69970703 C172.06942322 200.4506514 172.09099487 201.20159576 172.11322021 201.97529602 C172.05147635 207.27531663 170.4583366 209.93574921 166.85056496 213.78041744 C163.67920888 216.62957009 160.94705471 216.25092354 156.79536438 216.27415466 C156.11255769 216.27924248 155.42975101 216.2843303 154.72625321 216.2895723 C152.42712335 216.30532923 150.128025 216.31383039 147.82885742 216.32226562 C146.18476663 216.33180156 144.54067786 216.34169261 142.89659119 216.35191345 C137.48691193 216.38333154 132.07721715 216.40357033 126.66748047 216.42211914 C125.28739669 216.42706512 125.28739669 216.42706512 123.87943244 216.43211102 C115.20352962 216.46289554 106.52762338 216.48960595 97.85168171 216.50652981 C86.75112446 216.52843614 75.65105097 216.57040092 64.55068713 216.63996738 C56.74763226 216.68720973 48.94470789 216.71146377 41.14151448 216.71872669 C36.48030754 216.72368307 31.81964548 216.73876195 27.15859413 216.77847099 C22.7712558 216.81535458 18.38477312 216.82374167 13.99730873 216.81046486 C12.38926774 216.81051878 10.78118869 216.82080491 9.17329025 216.84221649 C-4.48497535 217.01433479 -4.48497535 217.01433479 -9.08235168 213.19496155 C-12.85822702 209.14789884 -12.78570716 205.67688939 -12.79393005 200.3273468 C-12.79901787 199.51386644 -12.80410569 198.70038608 -12.80934769 197.8622548 C-12.82511493 195.12089948 -12.83360849 192.37957061 -12.84204102 189.63818359 C-12.85157606 187.6788262 -12.86146707 185.71947051 -12.87168884 183.76011658 C-12.90311529 177.31153369 -12.92334573 170.86293774 -12.94189453 164.41430664 C-12.94519185 163.31791107 -12.94848917 162.2215155 -12.95188642 161.09189582 C-12.98266975 150.75516309 -13.00938283 140.41842752 -13.0263052 130.08166218 C-13.04821719 116.85112126 -13.09019376 103.62098592 -13.15974277 90.39060718 C-13.20696214 81.09287208 -13.23123607 71.79524648 -13.23850209 62.49739522 C-13.24346163 56.94196439 -13.25857155 51.38699034 -13.29824638 45.83168983 C-13.33508911 40.60391606 -13.34352999 35.37686038 -13.33024025 30.14898109 C-13.33029424 28.23133473 -13.34060683 26.31365673 -13.36199188 24.39612961 C-13.38966091 21.77476074 -13.38017215 19.15601301 -13.36155701 16.53462219 C-13.37835194 15.77818666 -13.39514686 15.02175113 -13.41245073 14.24239331 C-13.3188026 8.95444865 -11.71487111 6.28472687 -8.11551052 2.44637746 C-5.42318515 0.02534935 -3.51902588 -0.00921211 0 0 Z " fill="#4C5A67" transform="translate(32.63330078125,19.886474609375)"/>
<path d="M0 0 C4.40616929 2.1267934 7.35554337 4.95197207 10.8125 8.375 C11.42287109 8.9525 12.03324219 9.53 12.66210938 10.125 C13.5196582 10.97191406 13.5196582 10.97191406 14.39453125 11.8359375 C14.91893799 12.34688965 15.44334473 12.8578418 15.98364258 13.38427734 C17 15 17 15 16.78902817 16.89456463 C15.80036018 19.53271702 14.57281464 20.53676634 12.39190674 22.3026886 C8.28996722 25.73457202 4.49854168 29.36605939 0.72949219 33.15698242 C0.05199921 33.83432938 -0.62549377 34.51167633 -1.32351685 35.20954895 C-3.53576838 37.42249039 -5.74446729 39.63894095 -7.953125 41.85546875 C-9.50130625 43.40551827 -11.04971079 44.95534478 -12.59832764 46.50495911 C-16.65627442 50.56670561 -20.71120998 54.63144517 -24.76550293 58.69683838 C-28.89393504 62.83551398 -33.02520874 66.9713509 -37.15625 71.10742188 C-43.82236802 77.7823127 -50.48673312 84.45894767 -57.14889526 91.13778687 C-60.0974625 94.09366401 -63.04684659 97.04870281 -66 100 C-70.75082319 97.85207771 -74.18476537 94.48347509 -78 91 C-78.54914063 90.52820313 -79.09828125 90.05640625 -79.6640625 89.5703125 C-81.0625 88.3125 -81.0625 88.3125 -83 86 C-82.67946636 82.51977038 -81.18860639 80.81675018 -78.76670837 78.40594482 C-78.07537308 77.71048553 -77.38403778 77.01502625 -76.67175293 76.29849243 C-75.90858765 75.54611298 -75.14542236 74.79373352 -74.35913086 74.01855469 C-73.55919205 73.2181778 -72.75925323 72.4178009 -71.93507385 71.59317017 C-69.28537835 68.9455671 -66.62520977 66.30875236 -63.96484375 63.671875 C-62.12716029 61.83978584 -60.29013743 60.00703386 -58.45375061 58.17364502 C-54.11020307 53.84038725 -49.76003963 49.51387574 -45.40660816 45.19055104 C-40.45034461 40.26782159 -35.50259868 35.33656909 -30.55555141 30.40458059 C-20.37982085 20.26020624 -10.19343274 10.12658484 0 0 Z " fill="#FDCE4C" transform="translate(204,99)"/>
<path d="M0 0 C2.13334022 -0.00218879 4.26616522 -0.02035646 6.39941406 -0.03930664 C7.75097479 -0.0422402 9.10253798 -0.04422525 10.45410156 -0.04516602 C11.68773437 -0.0492749 12.92136719 -0.05338379 14.19238281 -0.05761719 C17.14160156 0.18530273 17.14160156 0.18530273 19.14160156 2.18530273 C18.58604601 6.74085829 18.58604601 6.74085829 17.14160156 8.18530273 C15.08215778 8.33154435 13.01802924 8.4127211 10.95410156 8.46655273 C9.69855469 8.50393555 8.44300781 8.54131836 7.14941406 8.57983398 C5.14130354 8.63350835 3.13315379 8.6855216 1.125 8.73754883 C-0.80707316 8.7891908 -2.73899137 8.84653189 -4.67089844 8.90405273 C-5.83234375 8.9343457 -6.99378906 8.96463867 -8.19042969 8.99584961 C-10.77829381 8.8867831 -10.77829381 8.8867831 -11.85839844 10.18530273 C-11.95822409 12.51067129 -11.99282854 14.80639095 -11.98538208 17.13232422 C-11.98694207 17.8675125 -11.98850206 18.60270079 -11.99010932 19.3601675 C-11.99412199 21.84226377 -11.99092866 24.32429968 -11.98779297 26.80639648 C-11.98914689 28.5782983 -11.99092677 30.35019983 -11.99310303 32.12210083 C-11.99767843 36.94840809 -11.99588736 41.77469408 -11.99272394 46.60100174 C-11.99020089 51.640089 -11.99253772 56.67917439 -11.99411011 61.71826172 C-11.99593196 70.18221363 -11.99352507 78.64615683 -11.98876953 87.11010742 C-11.98332688 96.91046185 -11.98508953 106.71079548 -11.99059594 116.51114941 C-11.99512661 124.90941897 -11.99577784 133.30768225 -11.99315727 141.70595264 C-11.99159424 146.72892918 -11.99140143 151.75189591 -11.99469376 156.77487183 C-11.99757181 161.49600071 -11.995598 166.21710265 -11.9897995 170.93822861 C-11.98847154 172.67614573 -11.98886661 174.41406511 -11.99106216 176.15198135 C-11.99377229 178.51411247 -11.99039426 180.87615581 -11.98538208 183.23828125 C-11.9876128 183.93505698 -11.98984352 184.63183271 -11.99214184 185.34972286 C-12.24661238 188.54529101 -12.24661238 188.54529101 -10.85839844 191.18530273 C-9.45907219 191.28852124 -8.05461587 191.32324132 -6.65150452 191.33006287 C-5.74429153 191.33696136 -4.83707855 191.34385986 -3.90237427 191.35096741 C-2.89923187 191.35358078 -1.89608948 191.35619415 -0.86254883 191.35888672 C0.18777023 191.36557373 1.23808929 191.37226074 2.32023621 191.37915039 C4.60926574 191.39323759 6.89830963 191.40511983 9.18736076 191.41509819 C12.80477482 191.43144542 16.42208226 191.45467966 20.03944397 191.47999573 C30.32726779 191.55095105 40.61513513 191.61097759 50.90307617 191.66210938 C57.18716714 191.69382565 63.47113621 191.7350825 69.75512886 191.78230476 C72.15657937 191.79836974 74.55805799 191.81067037 76.95954704 191.81921196 C80.31194373 191.83130793 83.66405159 191.85543325 87.01635742 191.88232422 C88.51803467 191.88320793 88.51803467 191.88320793 90.05004883 191.8841095 C91.41509804 191.89868698 91.41509804 191.89868698 92.807724 191.91355896 C93.9976541 191.91990687 93.9976541 191.91990687 95.21162319 191.92638302 C97.14160156 192.18530273 97.14160156 192.18530273 99.14160156 194.18530273 C98.58604601 198.74085829 98.58604601 198.74085829 97.14160156 200.18530273 C95.72835506 200.29378091 94.30977709 200.33377621 92.89242554 200.34593201 C91.5172023 200.36100044 91.5172023 200.36100044 90.11419678 200.37637329 C89.10020813 200.38220428 88.08621948 200.38803528 87.04150391 200.39404297 C85.97970917 200.40382675 84.91791443 200.41361053 83.82394409 200.4236908 C80.29182198 200.45373083 76.75973805 200.47505662 73.22753906 200.49389648 C72.02361134 200.50046831 70.81968361 200.50704014 69.57927322 200.51381111 C63.2040652 200.54644596 56.82887416 200.57088404 50.45361328 200.59033203 C45.17276683 200.60813702 39.89245516 200.64293965 34.61181641 200.69287109 C28.24341078 200.75302633 21.87550073 200.78380247 15.50682449 200.79350471 C13.07872384 200.80207069 10.65063681 200.82091658 8.22269821 200.85024834 C4.82056703 200.88912844 1.42036676 200.89020073 -1.98193359 200.88232422 C-3.48469849 200.91232513 -3.48469849 200.91232513 -5.01782227 200.94293213 C-11.03028423 200.88051645 -14.26988092 199.90959151 -18.6118679 195.66861057 C-21.38687492 192.36649357 -21.01215813 189.11320358 -21.01902771 185.00654602 C-21.02411553 184.2584025 -21.02920335 183.51025897 -21.03444535 182.73944443 C-21.05020788 180.21920184 -21.05870491 177.69898798 -21.06713867 175.17871094 C-21.07667412 173.37698686 -21.08656515 171.57526463 -21.0967865 169.77354431 C-21.12820913 163.84441307 -21.14844338 157.91526764 -21.16699219 151.98608398 C-21.17028951 150.97785827 -21.17358683 149.96963256 -21.17698407 148.93085456 C-21.20776795 139.42453669 -21.23447981 129.91821571 -21.25140285 120.41186237 C-21.27331226 108.24631489 -21.31528346 96.08120864 -21.38484043 83.91583759 C-21.43207028 75.36544258 -21.45633513 66.81516665 -21.46359974 58.26464528 C-21.46855784 53.15632806 -21.48365361 48.0485078 -21.52334404 42.94033241 C-21.56020539 38.13277806 -21.56862173 33.32600457 -21.55533791 28.51833534 C-21.55539186 26.75549191 -21.56569239 24.99261393 -21.58708954 23.22990036 C-21.75921297 8.24706183 -21.75921297 8.24706183 -17.93983459 3.64445496 C-12.31019171 -0.84830365 -6.90652941 -0.00079678 0 0 Z " fill="#000001" transform="translate(48.8583984375,27.814697265625)"/>
<path d="M0 0 C8.22631353 4.62474343 12.42105786 10.52098608 15.35546875 19.32421875 C16.35060427 29.12875071 14.32325698 37.00168229 8.10546875 44.69921875 C3.1405271 49.98447922 -2.92222997 52.87058036 -10.125 53.5625 C-19.99658764 53.83314959 -26.68198288 50.94996067 -33.91796875 44.26171875 C-39.55958584 37.93085432 -41.01752126 30.71988947 -40.91796875 22.45703125 C-40.20453303 14.28309625 -35.68012896 7.70271509 -29.64453125 2.32421875 C-20.28020126 -3.63177055 -10.20082986 -4.62199763 0 0 Z " fill="#30C570" transform="translate(84.64453125,126.67578125)"/>
<path d="M0 0 C8.22631353 4.62474343 12.42105786 10.52098608 15.35546875 19.32421875 C16.35060427 29.12875071 14.32325698 37.00168229 8.10546875 44.69921875 C3.1405271 49.98447922 -2.92222997 52.87058036 -10.125 53.5625 C-19.99658764 53.83314959 -26.68198288 50.94996067 -33.91796875 44.26171875 C-39.55958584 37.93085432 -41.01752126 30.71988947 -40.91796875 22.45703125 C-40.20453303 14.28309625 -35.68012896 7.70271509 -29.64453125 2.32421875 C-20.28020126 -3.63177055 -10.20082986 -4.62199763 0 0 Z " fill="#30C570" transform="translate(84.64453125,62.67578125)"/>
<path d="M0 0 C18.48 0 36.96 0 56 0 C56 16 56 16 53.125 20.4375 C47.22994399 25.89113878 38.72217105 24.33969281 31.14379883 24.4050293 C29.26503073 24.42657592 27.38636212 24.46063934 25.50805664 24.50756836 C22.7926777 24.57477716 20.07937613 24.6020635 17.36328125 24.62109375 C16.11445915 24.66283974 16.11445915 24.66283974 14.84040833 24.70542908 C9.21782282 24.68577804 6.37077602 23.36928582 2.29972839 19.48597717 C-2.77963471 13.67875033 0 9.84863751 0 0 Z " fill="#6C7988" transform="translate(84,20)"/>
<path d="M0 0 C8.22631353 4.62474343 12.42105786 10.52098608 15.35546875 19.32421875 C16.35060427 29.12875071 14.32325698 37.00168229 8.10546875 44.69921875 C3.1405271 49.98447922 -2.92222997 52.87058036 -10.125 53.5625 C-19.99658764 53.83314959 -26.68198288 50.94996067 -33.91796875 44.26171875 C-39.55958584 37.93085432 -41.01752126 30.71988947 -40.91796875 22.45703125 C-40.20453303 14.28309625 -35.68012896 7.70271509 -29.64453125 2.32421875 C-20.28020126 -3.63177055 -10.20082986 -4.62199763 0 0 Z M-27.44140625 11.265625 C-31.3564664 16.32723848 -33.07884105 20.34706249 -32.984375 26.78125 C-32.25750272 32.22025979 -29.83546522 37.22916811 -25.859375 41.03125 C-20.31096397 45.11893286 -15.35263849 46.2103896 -8.64453125 45.32421875 C-2.01650676 43.2228895 2.17164899 40.30814529 5.515625 34.19140625 C7.92852961 28.82690204 8.50175104 23.50091136 6.484375 17.91015625 C3.69520096 12.44154617 0.64547443 9.40204024 -4.64453125 6.32421875 C-12.93575345 3.74878901 -21.37840465 4.71494719 -27.44140625 11.265625 Z " fill="#060A07" transform="translate(84.64453125,126.67578125)"/>
<path d="M0 0 C8.22631353 4.62474343 12.42105786 10.52098608 15.35546875 19.32421875 C16.35060427 29.12875071 14.32325698 37.00168229 8.10546875 44.69921875 C3.1405271 49.98447922 -2.92222997 52.87058036 -10.125 53.5625 C-19.99658764 53.83314959 -26.68198288 50.94996067 -33.91796875 44.26171875 C-39.55958584 37.93085432 -41.01752126 30.71988947 -40.91796875 22.45703125 C-40.20453303 14.28309625 -35.68012896 7.70271509 -29.64453125 2.32421875 C-20.28020126 -3.63177055 -10.20082986 -4.62199763 0 0 Z M-27.44140625 11.265625 C-31.3564664 16.32723848 -33.07884105 20.34706249 -32.984375 26.78125 C-32.25750272 32.22025979 -29.83546522 37.22916811 -25.859375 41.03125 C-20.31096397 45.11893286 -15.35263849 46.2103896 -8.64453125 45.32421875 C-2.01650676 43.2228895 2.17164899 40.30814529 5.515625 34.19140625 C7.92852961 28.82690204 8.50175104 23.50091136 6.484375 17.91015625 C3.69520096 12.44154617 0.64547443 9.40204024 -4.64453125 6.32421875 C-12.93575345 3.74878901 -21.37840465 4.71494719 -27.44140625 11.265625 Z " fill="#060A07" transform="translate(84.64453125,62.67578125)"/>
<path d="M0 0 C6.70766568 -0.14869491 13.41436508 -0.25738357 20.12329102 -0.32958984 C22.40373453 -0.35970005 24.68406282 -0.400598 26.96411133 -0.45263672 C30.24849921 -0.52570271 33.53135187 -0.55951502 36.81640625 -0.5859375 C37.83021866 -0.61690521 38.84403107 -0.64787292 39.88856506 -0.67977905 C46.01532658 -0.6826699 49.34635961 0.16714535 53.76426697 4.51278687 C56.25228511 7.50713368 56.15534123 9.80950809 56.22460938 13.6237793 C56.24712769 14.80227951 56.269646 15.98077972 56.29284668 17.19499207 C56.36373186 22.59699121 56.4215587 27.99881519 56.45996094 33.40112305 C56.48220737 36.2503712 56.52392717 39.09830337 56.58300781 41.94702148 C56.66797037 46.05212274 56.69526706 50.15579854 56.71875 54.26171875 C56.75174194 55.5317424 56.78473389 56.80176605 56.81872559 58.11027527 C56.79640791 67.9855555 56.79640791 67.9855555 52.51757812 72.35864258 C49.34425554 75 49.34425554 75 48 75 C47.99857498 74.27416718 47.99714996 73.54833435 47.99568176 72.80050659 C47.97781729 65.94437118 47.93610197 59.08874608 47.86790943 52.23293877 C47.83368671 48.70859217 47.808537 45.18467684 47.80444336 41.66015625 C47.79932766 37.60364746 47.75417346 33.5484272 47.70703125 29.4921875 C47.7109639 28.23260223 47.71489655 26.97301697 47.71894836 25.67526245 C47.75591946 18.45351934 47.75591946 18.45351934 44.58081055 12.21923828 C39.39548915 7.76038184 33.65799757 8.77780825 27.14160156 8.75976562 C25.00807041 8.7500368 22.87549344 8.71900244 20.7421875 8.6875 C19.39063073 8.68097209 18.03906706 8.67572079 16.6875 8.671875 C15.45386719 8.6625293 14.22023437 8.65318359 12.94921875 8.64355469 C11.97597656 8.76118164 11.00273437 8.87880859 10 9 C9.01 10.485 9.01 10.485 8 12 C6.0546875 12.29296875 6.0546875 12.29296875 3.875 12.1875 C1.956875 12.0946875 1.956875 12.0946875 0 12 C0 8.04 0 4.08 0 0 Z " fill="#4D5967" transform="translate(148,20)"/>
<path d="M0 0 C0.99026436 -0.00503792 0.99026436 -0.00503792 2.00053406 -0.01017761 C4.19316465 -0.01971328 6.38571908 -0.02163203 8.57836914 -0.02270508 C10.09672579 -0.02591588 11.61508213 -0.02927981 13.13343811 -0.03279114 C16.32041135 -0.03878898 19.50735745 -0.04063037 22.69433594 -0.04003906 C26.78472139 -0.03993741 30.87493336 -0.05358976 34.96527767 -0.07081127 C38.10247095 -0.08191204 41.23962205 -0.08395887 44.37683296 -0.08342934 C45.88516399 -0.08461236 47.393496 -0.08905208 48.90180779 -0.0967617 C51.00888198 -0.10652294 53.11557637 -0.10369915 55.22265625 -0.09765625 C57.02348915 -0.09979378 57.02348915 -0.09979378 58.86070251 -0.10197449 C61.67602539 0.14526367 61.67602539 0.14526367 63.67602539 2.14526367 C63.12046984 6.70081923 63.12046984 6.70081923 61.67602539 8.14526367 C59.57008111 8.25000925 57.46058773 8.28382824 55.35205078 8.29052734 C54.36178642 8.29556526 54.36178642 8.29556526 53.35151672 8.30070496 C51.15888614 8.31024062 48.9663317 8.31215938 46.77368164 8.31323242 C45.25532499 8.31644322 43.73696866 8.31980716 42.21861267 8.32331848 C39.03163943 8.32931633 35.84469333 8.33115772 32.65771484 8.33056641 C28.56732939 8.33046475 24.47711742 8.3441171 20.38677311 8.36133862 C17.24957983 8.37243938 14.11242873 8.37448621 10.97521782 8.37395668 C9.4668868 8.3751397 7.95855478 8.37957942 6.450243 8.38728905 C4.3431688 8.39705029 2.23647441 8.39422649 0.12939453 8.38818359 C-1.07116074 8.38960861 -2.271716 8.39103363 -3.50865173 8.39250183 C-6.32397461 8.14526367 -6.32397461 8.14526367 -8.32397461 6.14526367 C-7.54424124 -0.24854995 -6.16874273 0.01959893 0 0 Z " fill="#010101" transform="translate(116.323974609375,91.854736328125)"/>
<path d="M0 0 C1.03454819 -0.00637985 2.06909637 -0.0127597 3.13499451 -0.01933289 C4.26099564 -0.02044571 5.38699677 -0.02155853 6.54711914 -0.02270508 C7.69515518 -0.02603348 8.84319122 -0.02936188 10.02601624 -0.03279114 C12.45972288 -0.03786534 14.89343651 -0.04019931 17.32714844 -0.04003906 C21.06269731 -0.04222487 24.79795074 -0.06037379 28.53344727 -0.0793457 C30.89217021 -0.08227958 33.25089456 -0.08426441 35.60961914 -0.08520508 C36.73359604 -0.09239059 37.85757294 -0.09957611 39.01560974 -0.10697937 C40.05331009 -0.10390274 41.09101044 -0.10082611 42.16015625 -0.09765625 C43.07647324 -0.09908127 43.99279022 -0.10050629 44.93687439 -0.10197449 C47.14477539 0.14526367 47.14477539 0.14526367 49.14477539 2.14526367 C48.58921984 6.70081923 48.58921984 6.70081923 47.14477539 8.14526367 C45.52897531 8.24908956 43.90866915 8.2837861 42.28955078 8.29052734 C41.25500259 8.2969072 40.22045441 8.30328705 39.15455627 8.30986023 C37.46555458 8.31152946 37.46555458 8.31152946 35.74243164 8.31323242 C34.5943956 8.31656082 33.44635956 8.31988922 32.26353455 8.32331848 C29.8298279 8.32839269 27.39611427 8.33072666 24.96240234 8.33056641 C21.22685347 8.33275222 17.49160004 8.35090113 13.75610352 8.36987305 C11.39738057 8.37280692 9.03865622 8.37479176 6.67993164 8.37573242 C5.55595474 8.38291794 4.43197784 8.39010345 3.27394104 8.39750671 C2.23624069 8.39443008 1.19854034 8.39135345 0.12939453 8.38818359 C-0.78692245 8.38960861 -1.70323944 8.39103363 -2.64732361 8.39250183 C-4.85522461 8.14526367 -4.85522461 8.14526367 -6.85522461 6.14526367 C-6.17410527 0.56008511 -5.46087695 0.02273651 0 0 Z " fill="#020202" transform="translate(50.855224609375,203.854736328125)"/>
<path d="M0 0 C1.03454819 -0.00637985 2.06909637 -0.0127597 3.13499451 -0.01933289 C4.26099564 -0.02044571 5.38699677 -0.02155853 6.54711914 -0.02270508 C7.69515518 -0.02603348 8.84319122 -0.02936188 10.02601624 -0.03279114 C12.45972288 -0.03786534 14.89343651 -0.04019931 17.32714844 -0.04003906 C21.06269731 -0.04222487 24.79795074 -0.06037379 28.53344727 -0.0793457 C30.89217021 -0.08227958 33.25089456 -0.08426441 35.60961914 -0.08520508 C36.73359604 -0.09239059 37.85757294 -0.09957611 39.01560974 -0.10697937 C40.05331009 -0.10390274 41.09101044 -0.10082611 42.16015625 -0.09765625 C43.07647324 -0.09908127 43.99279022 -0.10050629 44.93687439 -0.10197449 C47.14477539 0.14526367 47.14477539 0.14526367 49.14477539 2.14526367 C48.58921984 6.70081923 48.58921984 6.70081923 47.14477539 8.14526367 C45.52897531 8.24908956 43.90866915 8.2837861 42.28955078 8.29052734 C41.25500259 8.2969072 40.22045441 8.30328705 39.15455627 8.30986023 C37.46555458 8.31152946 37.46555458 8.31152946 35.74243164 8.31323242 C34.5943956 8.31656082 33.44635956 8.31988922 32.26353455 8.32331848 C29.8298279 8.32839269 27.39611427 8.33072666 24.96240234 8.33056641 C21.22685347 8.33275222 17.49160004 8.35090113 13.75610352 8.36987305 C11.39738057 8.37280692 9.03865622 8.37479176 6.67993164 8.37573242 C5.55595474 8.38291794 4.43197784 8.39010345 3.27394104 8.39750671 C2.23624069 8.39443008 1.19854034 8.39135345 0.12939453 8.38818359 C-0.78692245 8.38960861 -1.70323944 8.39103363 -2.64732361 8.39250183 C-4.85522461 8.14526367 -4.85522461 8.14526367 -6.85522461 6.14526367 C-6.17410527 0.56008511 -5.46087695 0.02273651 0 0 Z " fill="#020202" transform="translate(50.855224609375,187.854736328125)"/>
<path d="M0 0 C4.08998175 1.80720124 6.66247347 4.19069751 9 8 C9.63282592 13.06260734 9.00822403 15.91741025 6 20 C4.68962066 21.68477344 3.36176922 23.35648543 2 25 C-1.37515573 24.41530554 -3.03799829 23.34598973 -5.453125 20.9453125 C-6.071875 20.33042969 -6.690625 19.71554688 -7.328125 19.08203125 C-7.96234375 18.43621094 -8.5965625 17.79039063 -9.25 17.125 C-9.8996875 16.48691406 -10.549375 15.84882812 -11.21875 15.19140625 C-11.83234375 14.57394531 -12.4459375 13.95648438 -13.078125 13.3203125 C-13.63918945 12.75586426 -14.20025391 12.19141602 -14.77832031 11.60986328 C-16 10 -16 10 -16 7 C-11.42696298 2.15735082 -6.86620747 -1.32042451 0 0 Z " fill="#F86B5C" transform="translate(227,84)"/>
<path d="M0 0 C0.79289932 -0.0033284 1.58579865 -0.0066568 2.40272522 -0.01008606 C4.08317483 -0.01515851 5.76363454 -0.01749429 7.4440918 -0.01733398 C10.02083884 -0.01951911 12.59715701 -0.03766734 15.17382812 -0.05664062 C16.80338395 -0.0595747 18.43294181 -0.0615594 20.0625 -0.0625 C20.83649643 -0.06968552 21.61049286 -0.07687103 22.40794373 -0.08427429 C27.86883372 -0.06085378 27.86883372 -0.06085378 30.09765625 2.16796875 C29.54210069 6.72352431 29.54210069 6.72352431 28.09765625 8.16796875 C25.45479351 8.28133501 22.83904169 8.33214636 20.1953125 8.3359375 C19.40241318 8.3392659 18.60951385 8.3425943 17.79258728 8.34602356 C16.11213767 8.35109601 14.43167796 8.35343179 12.7512207 8.35327148 C10.17447366 8.35545661 7.59815549 8.37360484 5.02148438 8.39257812 C3.39192855 8.3955122 1.76237069 8.3974969 0.1328125 8.3984375 C-1.02818214 8.40921577 -1.02818214 8.40921577 -2.21263123 8.42021179 C-7.67352122 8.39679128 -7.67352122 8.39679128 -9.90234375 6.16796875 C-9.04328183 -0.87633896 -6.34569987 0.00909981 0 0 Z " fill="#020202" transform="translate(149.90234375,75.83203125)"/>
<path d="M0 0 C2.10894181 1.17852631 3.55103309 2.365012 5.125 4.1875 C4.795 5.1775 4.465 6.1675 4.125 7.1875 C3.0525 7.1875 1.98 7.1875 0.875 7.1875 C-2.86141311 7.76436175 -2.86141311 7.76436175 -4.23046875 10.03515625 C-5.21940343 12.05943771 -6.0994757 14.07287164 -6.875 16.1875 C-8.525 16.1875 -10.175 16.1875 -11.875 16.1875 C-11.875 15.5275 -11.875 14.8675 -11.875 14.1875 C-15.835 14.1875 -19.795 14.1875 -23.875 14.1875 C-23.875 7.23906951 -23.875 7.23906951 -21.1328125 4.35546875 C-14.49289126 -0.64271372 -8.14074374 -2.30064497 0 0 Z " fill="#2EC970" transform="translate(78.875,132.8125)"/>
<path d="M0 0 C2.10894181 1.17852631 3.55103309 2.365012 5.125 4.1875 C4.795 5.1775 4.465 6.1675 4.125 7.1875 C3.0525 7.1875 1.98 7.1875 0.875 7.1875 C-2.86141311 7.76436175 -2.86141311 7.76436175 -4.23046875 10.03515625 C-5.21940343 12.05943771 -6.0994757 14.07287164 -6.875 16.1875 C-8.525 16.1875 -10.175 16.1875 -11.875 16.1875 C-11.875 15.5275 -11.875 14.8675 -11.875 14.1875 C-15.835 14.1875 -19.795 14.1875 -23.875 14.1875 C-23.875 7.23906951 -23.875 7.23906951 -21.1328125 4.35546875 C-14.49289126 -0.64271372 -8.14074374 -2.30064497 0 0 Z " fill="#2EC970" transform="translate(78.875,68.8125)"/>
<path d="M0 0 C1.875 0.125 1.875 0.125 4 1 C4.70626239 2.98636298 5.36893571 4.98848259 6 7 C7.29470975 8.37086915 8.62150897 9.71340837 10 11 C10 11.66 10 12.32 10 13 C15.50366792 13.32374517 19.43672206 13.53286034 24 10 C26.4375 11.125 26.4375 11.125 29 13 C29.8125 16.1875 29.8125 16.1875 30 19 C29.34 19 28.68 19 28 19 C28 19.99 28 20.98 28 22 C23.40980237 24.36913426 19.04943097 24.57783981 14 24 C8.6360424 22.04946996 8.6360424 22.04946996 6.75 18.9375 C6.5025 18.298125 6.255 17.65875 6 17 C5.34 16.34 4.68 15.68 4 15 C4 13.68 4 12.36 4 11 C3.34 11 2.68 11 2 11 C0.57741188 7.17679443 -0.24042276 4.08718695 0 0 Z " fill="#2ECA70" transform="translate(53,148)"/>
<path d="M0 0 C1.875 0.125 1.875 0.125 4 1 C4.70626239 2.98636298 5.36893571 4.98848259 6 7 C7.29470975 8.37086915 8.62150897 9.71340837 10 11 C10 11.66 10 12.32 10 13 C15.50366792 13.32374517 19.43672206 13.53286034 24 10 C26.4375 11.125 26.4375 11.125 29 13 C29.8125 16.1875 29.8125 16.1875 30 19 C29.34 19 28.68 19 28 19 C28 19.99 28 20.98 28 22 C23.40980237 24.36913426 19.04943097 24.57783981 14 24 C8.6360424 22.04946996 8.6360424 22.04946996 6.75 18.9375 C6.5025 18.298125 6.255 17.65875 6 17 C5.34 16.34 4.68 15.68 4 15 C4 13.68 4 12.36 4 11 C3.34 11 2.68 11 2 11 C0.57741188 7.17679443 -0.24042276 4.08718695 0 0 Z " fill="#2ECA70" transform="translate(53,84)"/>
<path d="M0 0 C1.08861328 0.38478516 1.08861328 0.38478516 2.19921875 0.77734375 C2.890625 3.02734375 2.890625 3.02734375 3.19921875 5.77734375 C1.36490161 8.8716551 -1.24172376 11.26389323 -3.80078125 13.77734375 C-4.33832031 14.31359375 -4.87585938 14.84984375 -5.4296875 15.40234375 C-7.56628942 17.36600922 -9.45710952 18.6715986 -12.23828125 19.52734375 C-16.47951629 18.28600667 -19.30368635 15.36367589 -21.80078125 11.77734375 C-21.73828125 8.83984375 -21.73828125 8.83984375 -20.80078125 6.77734375 C-18.55078125 6.08984375 -18.55078125 6.08984375 -15.80078125 5.77734375 C-13.62890625 7.2578125 -13.62890625 7.2578125 -11.80078125 8.77734375 C-11.20910156 8.11605469 -10.61742188 7.45476562 -10.0078125 6.7734375 C-9.21761719 5.92910156 -8.42742187 5.08476562 -7.61328125 4.21484375 C-6.83597656 3.36792969 -6.05867188 2.52101562 -5.2578125 1.6484375 C-2.80078125 -0.22265625 -2.80078125 -0.22265625 0 0 Z " fill="#021005" transform="translate(80.80078125,142.22265625)"/>
<path d="M0 0 C1.08861328 0.38478516 1.08861328 0.38478516 2.19921875 0.77734375 C2.890625 3.02734375 2.890625 3.02734375 3.19921875 5.77734375 C1.36490161 8.8716551 -1.24172376 11.26389323 -3.80078125 13.77734375 C-4.33832031 14.31359375 -4.87585938 14.84984375 -5.4296875 15.40234375 C-7.56628942 17.36600922 -9.45710952 18.6715986 -12.23828125 19.52734375 C-16.47951629 18.28600667 -19.30368635 15.36367589 -21.80078125 11.77734375 C-21.73828125 8.83984375 -21.73828125 8.83984375 -20.80078125 6.77734375 C-18.55078125 6.08984375 -18.55078125 6.08984375 -15.80078125 5.77734375 C-13.62890625 7.2578125 -13.62890625 7.2578125 -11.80078125 8.77734375 C-11.20910156 8.11605469 -10.61742188 7.45476562 -10.0078125 6.7734375 C-9.21761719 5.92910156 -8.42742187 5.08476563 -7.61328125 4.21484375 C-6.83597656 3.36792969 -6.05867188 2.52101563 -5.2578125 1.6484375 C-2.80078125 -0.22265625 -2.80078125 -0.22265625 0 0 Z " fill="#021005" transform="translate(80.80078125,78.22265625)"/>
<path d="M0 0 C1.31419922 -0.01224609 2.62839844 -0.02449219 3.98242188 -0.03710938 C5.23474609 -0.03904297 6.48707031 -0.04097656 7.77734375 -0.04296875 C8.93355225 -0.04707764 10.08976074 -0.05118652 11.28100586 -0.05541992 C14.0625 0.1875 14.0625 0.1875 16.0625 2.1875 C15.50694444 6.74305556 15.50694444 6.74305556 14.0625 8.1875 C9.42234675 8.4416555 4.77128694 8.37272798 0.125 8.375 C-1.18919922 8.38724609 -2.50339844 8.39949219 -3.85742188 8.41210938 C-5.10974609 8.41404297 -6.36207031 8.41597656 -7.65234375 8.41796875 C-9.38665649 8.42413208 -9.38665649 8.42413208 -11.15600586 8.43041992 C-13.9375 8.1875 -13.9375 8.1875 -15.9375 6.1875 C-14.84705137 -2.75417876 -7.54753556 0.00369073 0 0 Z " fill="#030303" transform="translate(123.9375,139.8125)"/>
<path d="M0 0 C1.39895508 -0.01836914 1.39895508 -0.01836914 2.82617188 -0.03710938 C4.16325195 -0.04000977 4.16325195 -0.04000977 5.52734375 -0.04296875 C6.348396 -0.04707764 7.16944824 -0.05118652 8.01538086 -0.05541992 C10.0625 0.1875 10.0625 0.1875 12.0625 2.1875 C11.50694444 6.74305556 11.50694444 6.74305556 10.0625 8.1875 C6.75733066 8.43785974 3.43853959 8.37271952 0.125 8.375 C-0.80763672 8.38724609 -1.74027344 8.39949219 -2.70117188 8.41210938 C-3.59255859 8.41404297 -4.48394531 8.41597656 -5.40234375 8.41796875 C-6.223396 8.42207764 -7.04444824 8.42618652 -7.89038086 8.43041992 C-9.9375 8.1875 -9.9375 8.1875 -11.9375 6.1875 C-10.98106887 -1.6552353 -6.84894087 0.00471366 0 0 Z " fill="#040404" transform="translate(119.9375,75.8125)"/>
<path d="M0 0 C1 3 1 3 1 5 C4.63 5.33 8.26 5.66 12 6 C12 6.66 12 7.32 12 8 C13.32 8.33 14.64 8.66 16 9 C15.01 9.66 14.02 10.32 13 11 C12.608125 10.484375 12.21625 9.96875 11.8125 9.4375 C10.9153125 8.7259375 10.9153125 8.7259375 10 8 C7.34533951 8.23043864 7.34533951 8.23043864 5 9 C5.29802105 12.47691229 6.0117623 14.01512296 8.1875 16.8125 C11.45878506 19.35683282 12.96115115 19.46963359 17 19 C17 19.66 17 20.32 17 21 C13.7 21 10.4 21 7 21 C7.33 20.01 7.66 19.02 8 18 C7.01 17.67 6.02 17.34 5 17 C2.37140179 14.16920193 1.52770599 11.79948314 1 8 C0.01 7.67 -0.98 7.34 -2 7 C-1.34 10.63 -0.68 14.26 0 18 C0.66 18 1.32 18 2 18 C2.28875 18.763125 2.5775 19.52625 2.875 20.3125 C3.96269013 23.15029308 3.96269013 23.15029308 6 26 C5.01 26 4.02 26 3 26 C1.6484375 24.35546875 1.6484375 24.35546875 0.375 22.1875 C-0.26308594 21.12595703 -0.26308594 21.12595703 -0.9140625 20.04296875 C-3.36039275 15.44069998 -3.52022714 11.098226 -3 6 C-1.5 2.4375 -1.5 2.4375 0 0 Z " fill="#39B770" transform="translate(55,141)"/>
<path d="M0 0 C1 3 1 3 1 5 C4.63 5.33 8.26 5.66 12 6 C12 6.66 12 7.32 12 8 C13.32 8.33 14.64 8.66 16 9 C15.01 9.66 14.02 10.32 13 11 C12.608125 10.484375 12.21625 9.96875 11.8125 9.4375 C10.9153125 8.7259375 10.9153125 8.7259375 10 8 C7.34533951 8.23043864 7.34533951 8.23043864 5 9 C5.29802105 12.47691229 6.0117623 14.01512296 8.1875 16.8125 C11.45878506 19.35683282 12.96115115 19.46963359 17 19 C17 19.66 17 20.32 17 21 C13.7 21 10.4 21 7 21 C7.33 20.01 7.66 19.02 8 18 C7.01 17.67 6.02 17.34 5 17 C2.37140179 14.16920193 1.52770599 11.79948314 1 8 C0.01 7.67 -0.98 7.34 -2 7 C-1.34 10.63 -0.68 14.26 0 18 C0.66 18 1.32 18 2 18 C2.28875 18.763125 2.5775 19.52625 2.875 20.3125 C3.96269013 23.15029308 3.96269013 23.15029308 6 26 C5.01 26 4.02 26 3 26 C1.6484375 24.35546875 1.6484375 24.35546875 0.375 22.1875 C-0.26308594 21.12595703 -0.26308594 21.12595703 -0.9140625 20.04296875 C-3.36039275 15.44069998 -3.52022714 11.098226 -3 6 C-1.5 2.4375 -1.5 2.4375 0 0 Z " fill="#39B770" transform="translate(55,77)"/>
<path d="M0 0 C0.33 0.99 0.66 1.98 1 3 C0.01 3.33 -0.98 3.66 -2 4 C-2.71247732 5.6476038 -3.37400383 7.31763529 -4 9 C-5.94042134 12.08703396 -7.58414526 13.67773365 -11 15 C-11.66 15 -12.32 15 -13 15 C-13.268125 15.639375 -13.53625 16.27875 -13.8125 16.9375 C-15 19 -15 19 -18 20 C-18.71247732 21.6476038 -19.37400383 23.31763529 -20 25 C-21.93391627 28.02699938 -22.51236025 28.83745342 -26 30 C-26.99 29.67 -27.98 29.34 -29 29 C-19.43 19.43 -9.86 9.86 0 0 Z " fill="#F9CE5B" transform="translate(192,111)"/>
<path d="M0 0 C4.88049925 3.9419417 9.0580583 8.11950075 13 13 C5.08529412 13.60882353 5.08529412 13.60882353 1.4375 11.5625 C-0.68875469 7.7722199 -0.32693592 4.25016698 0 0 Z " fill="#F6DBBB" transform="translate(116,191)"/>
<path d="M0 0 C0.99 0.33 1.98 0.66 3 1 C3 1.99 3 2.98 3 4 C3.99 4.33 4.98 4.66 6 5 C6 5.66 6 6.32 6 7 C6.66 7 7.32 7 8 7 C8.33 6.34 8.66 5.68 9 5 C9.33 7.31 9.66 9.62 10 12 C12.64 12.33 15.28 12.66 18 13 C18 13.66 18 14.32 18 15 C16.35 15.66 14.7 16.32 13 17 C7.59947495 12.28109462 2.38185495 7.69641143 -2 2 C-1.34 2 -0.68 2 0 2 C0 1.34 0 0.68 0 0 Z " fill="#FCCF55" transform="translate(123,182)"/>
<path d="M0 0 C0 4.15310058 -1.45772455 5.74067251 -4 9 C-5.78304036 10.38983714 -7.59348094 11.62891425 -9.51171875 12.82421875 C-11.3135939 14.02682855 -11.3135939 14.02682855 -12 17 C-13.70703125 18.859375 -13.70703125 18.859375 -15.8125 20.75 C-16.49957031 21.38421875 -17.18664062 22.0184375 -17.89453125 22.671875 C-20 24 -20 24 -22.26171875 23.703125 C-22.83535156 23.47109375 -23.40898437 23.2390625 -24 23 C-23.21625 22.7525 -22.4325 22.505 -21.625 22.25 C-18.48997487 20.75713089 -18.48530299 19.99476817 -17 17 C-15.74447759 15.58500807 -14.43359255 14.21816579 -13.0859375 12.890625 C-12.32539063 12.13652344 -11.56484375 11.38242188 -10.78125 10.60546875 C-9.9871875 9.82816406 -9.193125 9.05085937 -8.375 8.25 C-7.17230469 7.06083984 -7.17230469 7.06083984 -5.9453125 5.84765625 C-3.96797154 3.89385507 -1.98611091 1.94487897 0 0 Z " fill="#382A0F" transform="translate(160,176)"/>
<path d="M0 0 C4.74908547 2.80627778 7.19372222 5.25091453 10 10 C9.67 10.66 9.34 11.32 9 12 C8.319375 11.01 8.319375 11.01 7.625 10 C7.08875 9.34 6.5525 8.68 6 8 C5.34 8 4.68 8 4 8 C3.34 8.66 2.68 9.32 2 10 C1.2575 9.773125 0.515 9.54625 -0.25 9.3125 C-2.93331915 8.71841655 -2.93331915 8.71841655 -4.66015625 10.0390625 C-6.15515254 11.30433123 -7.58252369 12.64845282 -9 14 C-7.87548273 11.0280615 -6.77706209 8.66559313 -5 6 C-2.67182036 5.63239269 -0.3381615 5.29758419 2 5 C2.33 4.34 2.66 3.68 3 3 C2.01 2.67 1.02 2.34 0 2 C0 1.34 0 0.68 0 0 Z " fill="#39C375" transform="translate(81,134)"/>
<path d="M0 0 C4.74908547 2.80627778 7.19372222 5.25091453 10 10 C9.67 10.66 9.34 11.32 9 12 C8.319375 11.01 8.319375 11.01 7.625 10 C7.08875 9.34 6.5525 8.68 6 8 C5.34 8 4.68 8 4 8 C3.34 8.66 2.68 9.32 2 10 C1.2575 9.773125 0.515 9.54625 -0.25 9.3125 C-2.93331915 8.71841655 -2.93331915 8.71841655 -4.66015625 10.0390625 C-6.15515254 11.30433123 -7.58252369 12.64845282 -9 14 C-7.87548273 11.0280615 -6.77706209 8.66559313 -5 6 C-2.67182036 5.63239269 -0.3381615 5.29758419 2 5 C2.33 4.34 2.66 3.68 3 3 C2.01 2.67 1.02 2.34 0 2 C0 1.34 0 0.68 0 0 Z " fill="#39C375" transform="translate(81,70)"/>
<path d="M0 0 C0.33 0.99 0.66 1.98 1 3 C0.319375 3.66 -0.36125 4.32 -1.0625 5 C-4.56725347 8.49468234 -7.77221788 12.25130779 -11 16 C-12.32 15.67 -13.64 15.34 -15 15 C-10.05 10.05 -5.1 5.1 0 0 Z " fill="#F8CD5B" transform="translate(162,141)"/>
<path d="M0 0 C0 4.0521288 -1.50488362 5.09105379 -4.1875 8.0625 C-4.96480469 8.94035156 -5.74210938 9.81820312 -6.54296875 10.72265625 C-8.99164656 12.99225746 -10.84446143 14.00793903 -14 15 C-9.59156563 9.70987876 -4.92440206 4.81191572 0 0 Z " fill="#38290D" transform="translate(217,119)"/>
<path d="M0 0 C0 0.99 0 1.98 0 3 C-0.639375 3.20625 -1.27875 3.4125 -1.9375 3.625 C-4.34925077 4.89538209 -4.34925077 4.89538209 -4.75 8.125 C-4.8325 9.07375 -4.915 10.0225 -5 11 C-4.01 11.33 -3.02 11.66 -2 12 C-2.66 12.66 -3.32 13.32 -4 14 C-6.5 11.6875 -6.5 11.6875 -9 9 C-9 6 -9 6 -7.5390625 4.39453125 C-6.59160156 3.61142578 -6.59160156 3.61142578 -5.625 2.8125 C-4.68527344 2.01779297 -4.68527344 2.01779297 -3.7265625 1.20703125 C-2 0 -2 0 0 0 Z " fill="#DC6C60" transform="translate(220,85)"/>
<path d="M0 0 C0.99 0.33 1.98 0.66 3 1 C3 1.99 3 2.98 3 4 C3.99 4.33 4.98 4.66 6 5 C6 6.32 6 7.64 6 9 C6.66 9.33 7.32 9.66 8 10 C7.01 10 6.02 10 5 10 C3 7.6875 3 7.6875 1 5 C0.01769502 3.9826127 -0.97469597 2.97403883 -2 2 C-1.34 2 -0.68 2 0 2 C0 1.34 0 0.68 0 0 Z " fill="#E3BA51" transform="translate(123,182)"/>
<path d="M0 0 C2.64 0 5.28 0 8 0 C8.33 0.99 8.66 1.98 9 3 C10.98 3 12.96 3 15 3 C15 3.33 15 3.66 15 4 C9.158256 4.35050464 5.1468192 4.16727335 0 1 C0 0.67 0 0.34 0 0 Z " fill="#32B269" transform="translate(61,168)"/>
<path d="M0 0 C2.64 0 5.28 0 8 0 C8.33 0.99 8.66 1.98 9 3 C10.98 3 12.96 3 15 3 C15 3.33 15 3.66 15 4 C9.158256 4.35050464 5.1468192 4.16727335 0 1 C0 0.67 0 0.34 0 0 Z " fill="#32B269" transform="translate(61,104)"/>
<path d="M0 0 C0.33 0 0.66 0 1 0 C1.29363808 4.99184736 1.07836372 7.97444744 -2 12 C-2.99 12.495 -2.99 12.495 -4 13 C-4.125 9.625 -4.125 9.625 -4 6 C-3.34 5.34 -2.68 4.68 -2 4 C-1.34 4.33 -0.68 4.66 0 5 C0 3.35 0 1.7 0 0 Z " fill="#E0695C" transform="translate(235,92)"/>
<path d="M0 0 C0.33 0.66 0.66 1.32 1 2 C-4.92941176 9.24705882 -4.92941176 9.24705882 -8 12 C-8.66 12 -9.32 12 -10 12 C-8.52278578 8.54798361 -6.56205999 6.35038064 -3.875 3.75 C-3.15054688 3.04359375 -2.42609375 2.3371875 -1.6796875 1.609375 C-1.12539062 1.07828125 -0.57109375 0.5471875 0 0 Z " fill="#F7CE61" transform="translate(131,172)"/>
<path d="M0 0 C0.66 0.99 1.32 1.98 2 3 C3.32 2.67 4.64 2.34 6 2 C6.33 2.99 6.66 3.98 7 5 C6.67 5.66 6.34 6.32 6 7 C2.74456771 6.65120368 1.98126893 5.97866739 -0.25 3.4375 C-1.11625 2.2309375 -1.11625 2.2309375 -2 1 C-1.34 0.67 -0.68 0.34 0 0 Z " fill="#DE6C5D" transform="translate(223,102)"/>
<path d="M0 0 C0.33 0.66 0.66 1.32 1 2 C-0.23553276 3.20254524 -1.48902339 4.38666232 -2.75 5.5625 C-3.79414063 6.55443359 -3.79414063 6.55443359 -4.859375 7.56640625 C-7 9 -7 9 -9.265625 8.71484375 C-9.83796875 8.47894531 -10.4103125 8.24304688 -11 8 C-10.21625 7.7525 -9.4325 7.505 -8.625 7.25 C-5.56058543 5.79075497 -5.38274239 4.94985044 -4 2 C-1.875 0.75 -1.875 0.75 0 0 Z " fill="#2D200C" transform="translate(147,191)"/>
<path d="M0 0 C0.33 0.99 0.66 1.98 1 3 C-0.375 4.5 -0.375 4.5 -2 6 C-2.66 6 -3.32 6 -4 6 C-4.33 6.99 -4.66 7.98 -5 9 C-7.0625 9.6875 -7.0625 9.6875 -9 10 C-8.06409496 8.8944811 -7.12620142 7.79064547 -6.1875 6.6875 C-5.66542969 6.07261719 -5.14335937 5.45773438 -4.60546875 4.82421875 C-3.12827531 3.14575321 -1.59960869 1.56117966 0 0 Z " fill="#F8CE5F" transform="translate(146,157)"/>
<path d="M0 0 C1.32 0 2.64 0 4 0 C3.50168276 3.68754757 2.89932357 5.60490662 0 8 C-0.38063221 5.6739143 -0.71269945 3.33944736 -1 1 C-0.67 0.67 -0.34 0.34 0 0 Z " fill="#3BC175" transform="translate(87,156)"/>
<path d="M0 0 C1.32 0 2.64 0 4 0 C3.50168276 3.68754757 2.89932357 5.60490662 0 8 C-0.38063221 5.6739143 -0.71269945 3.33944736 -1 1 C-0.67 0.67 -0.34 0.34 0 0 Z " fill="#3BC175" transform="translate(87,92)"/>
<path d="M0 0 C4.74908547 2.80627778 7.19372222 5.25091453 10 10 C9.67 10.66 9.34 11.32 9 12 C7.99406757 10.8803014 6.9954151 9.7540588 6 8.625 C5.443125 7.99851563 4.88625 7.37203125 4.3125 6.7265625 C3 5 3 5 3 3 C2.01 2.67 1.02 2.34 0 2 C0 1.34 0 0.68 0 0 Z " fill="#3AAB69" transform="translate(81,134)"/>
<path d="M0 0 C4.74908547 2.80627778 7.19372222 5.25091453 10 10 C9.67 10.66 9.34 11.32 9 12 C7.99406757 10.8803014 6.9954151 9.7540588 6 8.625 C5.443125 7.99851562 4.88625 7.37203125 4.3125 6.7265625 C3 5 3 5 3 3 C2.01 2.67 1.02 2.34 0 2 C0 1.34 0 0.68 0 0 Z " fill="#3AAB69" transform="translate(81,70)"/>
<path d="M0 0 C-1.11575573 3.34726719 -1.51344622 3.62079748 -4.4375 5.25 C-6.2009375 6.11625 -6.2009375 6.11625 -8 7 C-8.66 6.67 -9.32 6.34 -10 6 C-8.71283353 4.99421411 -7.42011342 3.99553202 -6.125 3 C-5.40570313 2.443125 -4.68640625 1.88625 -3.9453125 1.3125 C-2 0 -2 0 0 0 Z " fill="#38AC6A" transform="translate(66,133)"/>
<path d="M0 0 C-1.11575573 3.34726719 -1.51344622 3.62079748 -4.4375 5.25 C-6.2009375 6.11625 -6.2009375 6.11625 -8 7 C-8.66 6.67 -9.32 6.34 -10 6 C-8.71283353 4.99421411 -7.42011342 3.99553202 -6.125 3 C-5.40570313 2.443125 -4.68640625 1.88625 -3.9453125 1.3125 C-2 0 -2 0 0 0 Z " fill="#38AC6A" transform="translate(66,69)"/>
<path d="M0 0 C1.98 1.65 3.96 3.3 6 5 C5.34 5.66 4.68 6.32 4 7 C2.68 6.34 1.36 5.68 0 5 C0 3.35 0 1.7 0 0 Z " fill="#EBC250" transform="translate(209,103)"/>
<path d="M0 0 C2.31 0.33 4.62 0.66 7 1 C7 1.66 7 2.32 7 3 C5.35 3.66 3.7 4.32 2 5 C1.34 4.34 0.68 3.68 0 3 C0 2.01 0 1.02 0 0 Z " fill="#F2C85F" transform="translate(134,194)"/>
<path d="M0 0 C0.804375 0.7425 0.804375 0.7425 1.625 1.5 C4.59358445 3.37489544 6.55312427 3.23501425 10 3 C10 3.66 10 4.32 10 5 C6.7 5 3.4 5 0 5 C0 3.35 0 1.7 0 0 Z " fill="#33A262" transform="translate(62,157)"/>
<path d="M0 0 C2.31 0 4.62 0 7 0 C7 0.66 7 1.32 7 2 C8.32 2.33 9.64 2.66 11 3 C10.01 3.66 9.02 4.32 8 5 C7.4121875 4.2575 7.4121875 4.2575 6.8125 3.5 C4.44908285 1.54406857 2.98564997 1.75792027 0 2 C0 1.34 0 0.68 0 0 Z " fill="#40B375" transform="translate(60,147)"/>
<path d="M0 0 C0.804375 0.7425 0.804375 0.7425 1.625 1.5 C4.59358445 3.37489544 6.55312427 3.23501425 10 3 C10 3.66 10 4.32 10 5 C6.7 5 3.4 5 0 5 C0 3.35 0 1.7 0 0 Z " fill="#33A262" transform="translate(62,93)"/>
<path d="M0 0 C2.31 0 4.62 0 7 0 C7 0.66 7 1.32 7 2 C8.32 2.33 9.64 2.66 11 3 C10.01 3.66 9.02 4.32 8 5 C7.4121875 4.2575 7.4121875 4.2575 6.8125 3.5 C4.44908285 1.54406857 2.98564997 1.75792027 0 2 C0 1.34 0 0.68 0 0 Z " fill="#40B375" transform="translate(60,83)"/>
<path d="M0 0 C0.99 0.33 1.98 0.66 3 1 C1.63016497 4.16115776 1.0109362 4.9927092 -2 7 C-1.125 2.25 -1.125 2.25 0 0 Z " fill="#072310" transform="translate(77,150)"/>
<path d="M0 0 C0.99 0.33 1.98 0.66 3 1 C1.63016497 4.16115776 1.0109362 4.9927092 -2 7 C-1.125 2.25 -1.125 2.25 0 0 Z " fill="#072310" transform="translate(77,86)"/>
</svg>
